<mxfile host="app.diagrams.net" modified="2023-04-11T17:43:24.331Z" agent="Mozilla/5.0 (Windows NT 10.0; Win64; x64) AppleWebKit/537.36 (KHTML, like Gecko) Chrome/112.0.0.0 Safari/537.36" etag="efNu4PlqLqkRBrdqn1Dz" version="21.1.5" type="device">
  <diagram name="Page-1" id="ehnx1GXCmhH_EwF7rD-4">
    <mxGraphModel dx="794" dy="442" grid="1" gridSize="10" guides="1" tooltips="1" connect="1" arrows="1" fold="1" page="1" pageScale="1" pageWidth="850" pageHeight="1100" math="0" shadow="0">
      <root>
        <mxCell id="0" />
        <mxCell id="1" parent="0" />
        <mxCell id="8iAajvbkFuxBs_FeLMcy-1" value="&lt;font style=&quot;font-size: 13px;&quot;&gt;&amp;lt;&amp;lt;device&amp;gt;&amp;gt;&lt;br&gt;Web Server&lt;/font&gt;" style="verticalAlign=top;align=center;spacingTop=8;spacingLeft=2;spacingRight=12;shape=cube;size=10;direction=south;fontStyle=4;html=1;whiteSpace=wrap;fillColor=#ffe6cc;strokeColor=#d79b00;" vertex="1" parent="1">
          <mxGeometry x="90" y="120" width="180" height="120" as="geometry" />
        </mxCell>
        <mxCell id="8iAajvbkFuxBs_FeLMcy-2" value="&lt;div style=&quot;font-size: 13px;&quot;&gt;&lt;span style=&quot;background-color: initial;&quot;&gt;&lt;font style=&quot;font-size: 13px;&quot;&gt;&amp;lt;&amp;lt;device&amp;gt;&amp;gt;&lt;/font&gt;&lt;/span&gt;&lt;/div&gt;&lt;div style=&quot;font-size: 13px;&quot;&gt;&lt;span style=&quot;background-color: initial;&quot;&gt;&lt;font style=&quot;font-size: 13px;&quot;&gt;Database Server&lt;/font&gt;&lt;/span&gt;&lt;/div&gt;" style="verticalAlign=top;align=center;spacingTop=8;spacingLeft=2;spacingRight=12;shape=cube;size=10;direction=south;fontStyle=4;html=1;whiteSpace=wrap;fillColor=#ffe6cc;strokeColor=#d79b00;" vertex="1" parent="1">
          <mxGeometry x="425" y="300" width="180" height="120" as="geometry" />
        </mxCell>
        <mxCell id="8iAajvbkFuxBs_FeLMcy-3" value="&lt;font style=&quot;font-size: 13px;&quot;&gt;&amp;lt;&amp;lt;device&amp;gt;&amp;gt;&lt;br&gt;User&amp;nbsp; PC&lt;/font&gt;" style="verticalAlign=top;align=center;spacingTop=8;spacingLeft=2;spacingRight=12;shape=cube;size=10;direction=south;fontStyle=4;html=1;whiteSpace=wrap;fillColor=#ffe6cc;strokeColor=#d79b00;" vertex="1" parent="1">
          <mxGeometry x="425" y="120" width="180" height="120" as="geometry" />
        </mxCell>
        <mxCell id="8iAajvbkFuxBs_FeLMcy-5" value="" style="endArrow=none;html=1;rounded=0;entryX=0;entryY=0;entryDx=65;entryDy=180;entryPerimeter=0;exitX=0;exitY=0;exitDx=55;exitDy=0;exitPerimeter=0;" edge="1" parent="1" source="8iAajvbkFuxBs_FeLMcy-11" target="8iAajvbkFuxBs_FeLMcy-2">
          <mxGeometry width="50" height="50" relative="1" as="geometry">
            <mxPoint x="360" y="420" as="sourcePoint" />
            <mxPoint x="430" y="210" as="targetPoint" />
          </mxGeometry>
        </mxCell>
        <mxCell id="8iAajvbkFuxBs_FeLMcy-6" value="" style="endArrow=none;html=1;rounded=0;exitX=0.5;exitY=0.056;exitDx=0;exitDy=0;exitPerimeter=0;entryX=0;entryY=0;entryDx=65;entryDy=180;entryPerimeter=0;" edge="1" parent="1" source="8iAajvbkFuxBs_FeLMcy-1" target="8iAajvbkFuxBs_FeLMcy-3">
          <mxGeometry width="50" height="50" relative="1" as="geometry">
            <mxPoint x="284" y="301.5" as="sourcePoint" />
            <mxPoint x="425" y="218.5" as="targetPoint" />
          </mxGeometry>
        </mxCell>
        <mxCell id="8iAajvbkFuxBs_FeLMcy-7" value="port 8080" style="text;html=1;align=center;verticalAlign=middle;resizable=0;points=[];autosize=1;strokeColor=none;fillColor=none;rotation=0;" vertex="1" parent="1">
          <mxGeometry x="320" y="160" width="70" height="30" as="geometry" />
        </mxCell>
        <mxCell id="8iAajvbkFuxBs_FeLMcy-8" value="&amp;lt;&amp;lt;artifact&amp;gt;&amp;gt;&lt;br&gt;index.js" style="html=1;whiteSpace=wrap;fillColor=#dae8fc;strokeColor=#6c8ebf;" vertex="1" parent="1">
          <mxGeometry x="120" y="180" width="110" height="50" as="geometry" />
        </mxCell>
        <mxCell id="8iAajvbkFuxBs_FeLMcy-9" value="&amp;lt;&amp;lt;artifact&amp;gt;&amp;gt;&lt;br&gt;MySQL Database" style="html=1;whiteSpace=wrap;fillColor=#dae8fc;strokeColor=#6c8ebf;" vertex="1" parent="1">
          <mxGeometry x="455" y="360" width="110" height="50" as="geometry" />
        </mxCell>
        <mxCell id="8iAajvbkFuxBs_FeLMcy-10" value="&amp;lt;&amp;lt;artifact&amp;gt;&amp;gt;&lt;br&gt;Web Browser" style="html=1;whiteSpace=wrap;fillColor=#dae8fc;strokeColor=#6c8ebf;" vertex="1" parent="1">
          <mxGeometry x="460" y="180" width="110" height="50" as="geometry" />
        </mxCell>
        <mxCell id="8iAajvbkFuxBs_FeLMcy-11" value="&lt;font style=&quot;font-size: 13px;&quot;&gt;&amp;lt;&amp;lt;device&amp;gt;&amp;gt;&lt;br&gt;Application Server&lt;/font&gt;" style="verticalAlign=top;align=center;spacingTop=8;spacingLeft=2;spacingRight=12;shape=cube;size=10;direction=south;fontStyle=4;html=1;whiteSpace=wrap;fillColor=#ffe6cc;strokeColor=#d79b00;" vertex="1" parent="1">
          <mxGeometry x="90" y="310" width="180" height="120" as="geometry" />
        </mxCell>
        <mxCell id="8iAajvbkFuxBs_FeLMcy-12" value="&amp;lt;&amp;lt;artifact&amp;gt;&amp;gt;&lt;br&gt;main.java" style="html=1;whiteSpace=wrap;fillColor=#dae8fc;strokeColor=#6c8ebf;" vertex="1" parent="1">
          <mxGeometry x="120" y="370" width="110" height="50" as="geometry" />
        </mxCell>
        <mxCell id="8iAajvbkFuxBs_FeLMcy-13" value="" style="endArrow=none;html=1;rounded=0;exitX=0;exitY=0;exitDx=120;exitDy=95;exitPerimeter=0;" edge="1" parent="1" source="8iAajvbkFuxBs_FeLMcy-1" target="8iAajvbkFuxBs_FeLMcy-11">
          <mxGeometry width="50" height="50" relative="1" as="geometry">
            <mxPoint x="170" y="265" as="sourcePoint" />
            <mxPoint x="324" y="250" as="targetPoint" />
          </mxGeometry>
        </mxCell>
        <mxCell id="8iAajvbkFuxBs_FeLMcy-14" value="Hibernate" style="text;html=1;align=center;verticalAlign=middle;resizable=0;points=[];autosize=1;strokeColor=none;fillColor=none;" vertex="1" parent="1">
          <mxGeometry x="310" y="335" width="80" height="30" as="geometry" />
        </mxCell>
        <mxCell id="8iAajvbkFuxBs_FeLMcy-15" value="REST API" style="text;html=1;align=center;verticalAlign=middle;resizable=0;points=[];autosize=1;strokeColor=none;fillColor=none;" vertex="1" parent="1">
          <mxGeometry x="170" y="265" width="80" height="30" as="geometry" />
        </mxCell>
      </root>
    </mxGraphModel>
  </diagram>
</mxfile>
